<?xml version="1.0" encoding="UTF-8" standalone="no"?>
<svg
   xmlns:dc="http://purl.org/dc/elements/1.1/"
   xmlns:cc="http://creativecommons.org/ns#"
   xmlns:rdf="http://www.w3.org/1999/02/22-rdf-syntax-ns#"
   xmlns:svg="http://www.w3.org/2000/svg"
   xmlns="http://www.w3.org/2000/svg"
   xmlns:sodipodi="http://sodipodi.sourceforge.net/DTD/sodipodi-0.dtd"
   xmlns:inkscape="http://www.inkscape.org/namespaces/inkscape"
   version="1.1"
   id="svg2"
   xml:space="preserve"
   width="755.90668"
   height="659.97333"
   viewBox="0 0 755.90668 659.97333"
   sodipodi:docname="brasao.eps"><metadata
     id="metadata8"><rdf:RDF><cc:Work
         rdf:about=""><dc:format>image/svg+xml</dc:format><dc:type
           rdf:resource="http://purl.org/dc/dcmitype/StillImage" /></cc:Work></rdf:RDF></metadata><defs
     id="defs6" /><sodipodi:namedview
     pagecolor="#ffffff"
     bordercolor="#666666"
     borderopacity="1"
     objecttolerance="10"
     gridtolerance="10"
     guidetolerance="10"
     inkscape:pageopacity="0"
     inkscape:pageshadow="2"
     inkscape:window-width="640"
     inkscape:window-height="480"
     id="namedview4" /><g
     id="g10"
     inkscape:groupmode="layer"
     inkscape:label="ink_ext_XXXXXX"
     transform="matrix(1.3333333,0,0,-1.3333333,0,659.97333)"><g
       id="g12"
       transform="scale(0.1)"><path
         d="m 3873.26,3038.36 c 35.58,103.52 49.38,222.22 31.87,361.93 -9.64,75.17 -32.72,138.74 -44.89,181.56 -13.27,46.72 -39.23,104.84 -69.28,172.15 -103.28,231.31 -243.72,545.85 -28.2,745.47 16.22,15.03 18.23,39.53 4.03,56.39 l -240.27,285.32 c -2.92,3.47 -7.27,5.48 -11.86,5.48 l -680.86,-0.14 -680.87,0.14 c -4.58,0 -8.93,-2.01 -11.85,-5.48 L 1900.8,4555.86 c -14.2,-16.86 -12.18,-41.36 4.04,-56.39 215.51,-199.62 75.07,-514.16 -28.2,-745.47 -30.06,-67.31 -56.01,-125.43 -69.29,-172.15 -12.16,-42.82 -35.24,-106.39 -44.89,-181.56 -17.51,-139.71 -3.71,-258.41 31.88,-361.93 h 2078.92"
         style="fill:#43b2e9;fill-opacity:1;fill-rule:nonzero;stroke:none"
         id="path14" /><path
         d="m 1744.83,3535.78 c 14.16,50.7 41.45,112.85 73.06,184.83 108.61,247.39 257.37,586.2 14.8,789.01 -13.58,11.34 -15.44,31.67 -4.15,45.29 l 259.29,329.28 c 6.17,7.44 15.25,11.7 24.91,11.7 l 714.55,-0.15 714.53,0.15 c 9.66,0 18.73,-4.26 24.9,-11.69 l 275.95,-329.28 c 11.28,-13.63 9.43,-33.97 -4.15,-45.31 -242.54,-202.79 -93.8,-541.59 14.82,-789 31.59,-71.93 58.86,-134.05 73.05,-184.82 41.3,-147.79 106.02,-522.79 -184.1,-812.56 -199.67,-199.39 -472.63,-261.24 -619.29,-294.47 -34.21,-7.73 -63.77,-14.42 -81.86,-20.59 -86.96,-29.71 -175.84,-144.98 -179.6,-149.89 -5.65,-7.42 -14.2,-12.04 -22.77,-12.67 l -0.27,0.03 -0.88,-0.08 c -10.65,-0.86 -21.37,4.05 -27.97,12.74 -0.89,1.2 -91.4,119.74 -179.57,149.87 -17.84,6.08 -47.36,12.78 -81.87,20.61 -146.63,33.21 -419.58,95.02 -619.28,294.45 -290.13,289.76 -225.4,664.77 -184.1,812.55 z M 2536.3,2376.26 c 32.77,-7.44 61.09,-13.84 76.33,-19.05 55.15,-18.83 127.61,-96.7 154.05,-131.43 16.2,-21.37 41.9,-34.14 68.75,-34.14 1.91,0 3.81,0.07 5.73,0.18 l 1.45,0.11 c 24.48,1.93 46.98,14.2 61.86,33.76 26.47,34.79 98.98,112.7 154.13,131.52 15.22,5.21 44.79,11.9 76.37,19.04 151.93,34.42 434.75,98.49 645.45,308.91 310.22,309.84 241.75,708.21 197.92,865.11 -15.22,54.41 -43.2,118.14 -75.63,191.99 -101.75,231.76 -241.1,549.18 -29.58,726.05 36.23,30.29 41.21,84.53 11.1,120.92 l -275.97,329.29 c -16.44,19.85 -40.66,31.23 -66.47,31.23 l -714.5,-0.15 -714.55,0.15 c -25.79,0 -50.01,-11.38 -66.46,-31.23 l -259.29,-329.29 c -30.12,-36.38 -25.14,-90.61 11.09,-120.91 211.55,-176.87 72.18,-494.31 -29.59,-726.1 -32.41,-73.81 -60.4,-137.55 -75.61,-191.96 -43.84,-156.89 -112.31,-555.26 197.92,-865.1 210.71,-210.44 493.54,-274.5 645.5,-308.9"
         style="fill:#1c418a;fill-opacity:1;fill-rule:nonzero;stroke:none"
         id="path16" /><path
         d="m 2445.68,4568.3 c -2.64,-5.34 -6.21,-9.81 -10.71,-13.37 -4.5,-3.57 -9.74,-6.24 -15.73,-8.02 -5.98,-1.78 -12.32,-2.68 -19.01,-2.68 h -19.93 v 85.57 h 23.71 c 9.44,0 17.13,-1.54 23.06,-4.62 5.92,-3.08 10.56,-6.83 13.91,-11.26 3.35,-4.43 5.62,-9.11 6.83,-14.03 1.21,-4.91 1.82,-9.2 1.82,-12.87 0,-7.14 -1.32,-13.37 -3.95,-18.72 z m 15.81,43.02 c -1.77,4.22 -4.15,8.32 -7.17,12.32 -3.02,3.99 -6.81,7.53 -11.36,10.61 -4.56,3.09 -9.94,5.54 -16.14,7.38 -6.2,1.83 -13.43,2.76 -21.66,2.76 h -40.67 v -114.74 h 38.04 c 10.43,0 19.62,1.62 27.58,4.86 7.96,3.24 14.63,7.54 20.01,12.89 5.38,5.34 9.44,11.44 12.19,18.31 2.74,6.86 4.11,13.95 4.11,21.31 0,3.56 -0.38,7.45 -1.15,11.67 -0.77,4.21 -2.04,8.42 -3.78,12.63"
         style="fill:#1c418a;fill-opacity:1;fill-rule:nonzero;stroke:none"
         id="path18" /><path
         d="m 2511.54,4581.02 h 55.33 v 14.59 h -55.33 v 34.19 h 59.44 v 14.59 h -75.25 v -114.74 h 78.22 v 14.58 h -62.41 v 36.79"
         style="fill:#1c418a;fill-opacity:1;fill-rule:nonzero;stroke:none"
         id="path20" /><path
         d="m 2708.57,4587.91 c -4.23,2.32 -8.84,4.13 -13.83,5.43 -5,1.3 -9.61,2.75 -13.84,4.37 -4.22,1.62 -7.76,3.73 -10.62,6.32 -2.85,2.6 -4.28,6.32 -4.28,11.18 0,1.73 0.35,3.62 1.08,5.68 0.7,2.05 1.94,3.97 3.7,5.75 1.76,1.78 4.09,3.24 7,4.37 2.9,1.13 6.56,1.7 10.95,1.7 4.61,0 8.73,-0.92 12.35,-2.75 3.62,-1.84 6.42,-4.26 8.39,-7.29 l 12.85,11.51 c -4.39,5.28 -9.5,8.8 -15.31,10.53 -5.83,1.72 -11.92,2.59 -18.28,2.59 -7.03,0 -13.04,-1.05 -18.04,-3.16 -4.99,-2.1 -9.08,-4.73 -12.26,-7.86 -3.18,-3.14 -5.52,-6.59 -7,-10.37 -1.48,-3.78 -2.22,-7.35 -2.22,-10.7 0,-7.45 1.43,-13.37 4.28,-17.74 2.85,-4.38 6.39,-7.86 10.62,-10.45 4.23,-2.59 8.84,-4.62 13.83,-6.08 5,-1.46 9.61,-2.98 13.83,-4.54 4.23,-1.56 7.77,-3.51 10.62,-5.83 2.86,-2.32 4.29,-5.7 4.29,-10.13 0,-3.14 -0.72,-5.89 -2.15,-8.26 -1.42,-2.38 -3.26,-4.38 -5.51,-6 -2.25,-1.62 -4.75,-2.84 -7.49,-3.65 -2.75,-0.81 -5.44,-1.21 -8.07,-1.21 -4.72,0 -9.3,1 -13.76,3 -4.44,1.99 -8.09,5.11 -10.94,9.31 l -13.01,-11.02 c 3.95,-5.4 9.27,-9.4 15.97,-11.99 6.7,-2.58 13.78,-3.89 21.25,-3.89 5.59,0 10.86,0.81 15.8,2.43 4.94,1.63 9.22,3.94 12.85,6.97 3.62,3.03 6.5,6.75 8.64,11.19 2.14,4.43 3.21,9.39 3.21,14.9 0,6.92 -1.42,12.34 -4.27,16.29 -2.87,3.94 -6.41,7.07 -10.63,9.4"
         style="fill:#1c418a;fill-opacity:1;fill-rule:nonzero;stroke:none"
         id="path22" /><path
         d="m 2769.25,4581.02 h 55.33 v 14.59 h -55.33 v 34.19 h 59.45 v 14.59 h -75.26 v -114.74 h 78.22 v 14.58 h -62.41 v 36.79"
         style="fill:#1c418a;fill-opacity:1;fill-rule:nonzero;stroke:none"
         id="path24" /><path
         d="m 3371.61,4593.82 h -20.75 v 36.95 h 20.75 c 3.07,0 6.12,-0.25 9.14,-0.73 3.02,-0.48 5.7,-1.37 8.06,-2.67 2.37,-1.3 4.26,-3.16 5.68,-5.59 1.43,-2.43 2.15,-5.6 2.15,-9.48 0,-3.89 -0.72,-7.05 -2.15,-9.49 -1.42,-2.42 -3.31,-4.29 -5.68,-5.58 -2.36,-1.3 -5.04,-2.19 -8.06,-2.68 -3.02,-0.49 -6.07,-0.73 -9.14,-0.73 z m 25.11,-8.34 c 3.57,1.89 6.59,4.21 9.06,6.96 2.47,2.76 4.36,5.85 5.68,9.24 1.32,3.41 1.97,6.95 1.97,10.62 0,3.56 -0.55,7.26 -1.65,11.09 -1.09,3.84 -3.04,7.3 -5.84,10.38 -2.8,3.08 -6.62,5.62 -11.45,7.61 -4.83,2 -10.97,3.01 -18.44,3.01 h -41 v -114.74 h 15.81 v 50.56 h 17.62 l 29.64,-50.56 h 19.77 l -33.11,52.35 c 4.39,0.42 8.37,1.59 11.94,3.48"
         style="fill:#1c418a;fill-opacity:1;fill-rule:nonzero;stroke:none"
         id="path26" /><path
         d="m 3536.61,4569.27 c -2.08,-5.56 -5.05,-10.4 -8.9,-14.5 -3.84,-4.1 -8.45,-7.37 -13.83,-9.81 -5.38,-2.43 -11.41,-3.64 -18.11,-3.64 -6.7,0 -12.74,1.21 -18.12,3.64 -5.38,2.44 -9.99,5.71 -13.83,9.81 -3.84,4.1 -6.8,8.94 -8.89,14.5 -2.09,5.57 -3.13,11.48 -3.13,17.75 0,6.26 1.04,12.18 3.13,17.74 2.09,5.56 5.05,10.4 8.89,14.51 3.84,4.1 8.45,7.37 13.83,9.8 5.38,2.43 11.42,3.64 18.12,3.64 6.7,0 12.73,-1.21 18.11,-3.64 5.38,-2.43 9.99,-5.7 13.83,-9.8 3.85,-4.11 6.82,-8.95 8.9,-14.51 2.09,-5.56 3.13,-11.48 3.13,-17.74 0,-6.27 -1.04,-12.18 -3.13,-17.75 z m 15.4,41.57 c -3.03,7.34 -7.2,13.72 -12.52,19.12 -5.32,5.4 -11.72,9.64 -19.18,12.72 -7.47,3.08 -15.65,4.62 -24.54,4.62 -8.89,0 -17.07,-1.54 -24.53,-4.62 -7.47,-3.08 -13.86,-7.32 -19.19,-12.72 -5.33,-5.4 -9.5,-11.78 -12.51,-19.12 -3.02,-7.35 -4.53,-15.29 -4.53,-23.82 0,-8.54 1.51,-16.48 4.53,-23.82 3.01,-7.35 7.18,-13.73 12.51,-19.13 5.33,-5.4 11.72,-9.64 19.19,-12.72 7.46,-3.08 15.64,-4.62 24.53,-4.62 8.89,0 17.07,1.54 24.54,4.62 7.46,3.08 13.86,7.32 19.18,12.72 5.32,5.4 9.49,11.78 12.52,19.13 3.02,7.34 4.52,15.28 4.52,23.82 0,8.53 -1.5,16.47 -4.52,23.82"
         style="fill:#1c418a;fill-opacity:1;fill-rule:nonzero;stroke:none"
         id="path28" /><path
         d="m 3286.31,4552.82 c -1.75,-2.48 -3.9,-4.45 -6.42,-5.91 -2.53,-1.46 -5.25,-2.43 -8.16,-2.92 -2.9,-0.48 -5.56,-0.73 -7.98,-0.73 h -23.22 v 39.87 h 23.39 c 7.68,0 13.77,-1.71 18.27,-5.11 4.51,-3.4 6.75,-8.51 6.75,-15.31 0,-4.11 -0.88,-7.4 -2.63,-9.89 z m -45.78,77.95 h 24.87 c 6.36,0 11.03,-1.68 14,-5.02 2.96,-3.35 4.44,-7.3 4.44,-11.83 0,-3.13 -0.57,-5.78 -1.72,-7.94 -1.16,-2.17 -2.72,-3.94 -4.7,-5.35 -1.97,-1.4 -4.28,-2.41 -6.92,-3 -2.63,-0.59 -5.43,-0.89 -8.39,-0.89 h -21.58 z m 57.88,-49.51 c -2.25,2.54 -4.91,4.6 -7.98,6.16 -3.08,1.56 -6.37,2.46 -9.88,2.68 v 0.32 c 5.93,1.95 10.75,4.99 14.49,9.16 3.74,4.15 5.6,9.53 5.6,16.12 0,4.86 -0.91,9.1 -2.72,12.72 -1.81,3.62 -4.28,6.59 -7.41,8.92 -3.13,2.32 -6.86,4.07 -11.2,5.26 -4.33,1.19 -9.02,1.79 -14.08,1.79 h -40.51 v -114.74 h 40.02 c 5.71,0 11.04,0.7 15.98,2.11 4.94,1.4 9.27,3.45 13.01,6.16 3.73,2.7 6.67,6.02 8.81,9.96 2.13,3.94 3.2,8.5 3.2,13.7 0,3.88 -0.66,7.5 -1.97,10.85 -1.32,3.35 -3.1,6.3 -5.36,8.83"
         style="fill:#1c418a;fill-opacity:1;fill-rule:nonzero;stroke:none"
         id="path30" /><path
         d="m 3129.05,4557.53 h -0.66 l -37.06,86.86 h -23.54 v -114.74 h 15.81 v 94.31 h 0.33 l 39.36,-94.31 h 10.53 l 39.36,94.31 h 0.33 v -94.31 h 15.8 v 114.74 h -23.54 l -36.72,-86.86"
         style="fill:#1c418a;fill-opacity:1;fill-rule:nonzero;stroke:none"
         id="path32" /><path
         d="m 2847.47,4629.8 h 37.54 v -100.15 h 15.81 v 100.15 h 37.55 v 14.59 h -90.9 v -14.59"
         style="fill:#1c418a;fill-opacity:1;fill-rule:nonzero;stroke:none"
         id="path34" /><path
         d="m 2977.55,4581.02 h 55.34 v 14.59 h -55.34 v 34.19 H 3037 v 14.59 h -75.26 v -114.74 h 78.23 v 14.58 h -62.42 v 36.79"
         style="fill:#1c418a;fill-opacity:1;fill-rule:nonzero;stroke:none"
         id="path36" /><path
         d="m 2271.04,4573.56 c -0.49,-5.18 -1.57,-10.17 -3.21,-14.98 -1.64,-4.81 -4.09,-8.9 -7.33,-12.24 -3.24,-3.34 -7.6,-5.02 -13.09,-5.02 -5.49,0 -9.85,1.68 -13.09,5.02 -3.24,3.34 -5.68,7.43 -7.33,12.24 -1.65,4.81 -2.72,9.8 -3.21,14.98 -0.49,5.19 -0.74,9.67 -0.74,13.46 0,2.59 0.09,5.53 0.25,8.83 0.16,3.29 0.54,6.64 1.15,10.05 0.6,3.4 1.45,6.69 2.55,9.89 1.1,3.17 2.55,6.04 4.37,8.58 1.81,2.53 4.03,4.56 6.66,6.08 2.64,1.51 5.77,2.26 9.39,2.26 3.62,0 6.75,-0.75 9.39,-2.26 2.63,-1.52 4.86,-3.55 6.66,-6.08 1.82,-2.54 3.27,-5.41 4.37,-8.58 1.1,-3.2 1.95,-6.49 2.55,-9.89 0.61,-3.41 0.99,-6.76 1.15,-10.05 0.17,-3.3 0.25,-6.24 0.25,-8.83 0,-3.79 -0.25,-8.27 -0.74,-13.46 z m 13.5,39.95 c -1.15,4.38 -2.69,8.56 -4.61,12.56 -1.92,4 -4.39,7.48 -7.4,10.45 -3.03,2.98 -6.59,5.35 -10.71,7.13 -4.12,1.79 -8.92,2.68 -14.41,2.68 -5.49,0 -10.29,-0.89 -14.41,-2.68 -4.11,-1.78 -7.68,-4.15 -10.7,-7.13 -3.02,-2.97 -5.49,-6.45 -7.41,-10.45 -1.92,-4 -3.46,-8.18 -4.61,-12.56 -1.16,-4.37 -1.95,-8.83 -2.39,-13.37 -0.44,-4.53 -0.66,-8.91 -0.66,-13.12 0,-6.06 0.55,-12.54 1.65,-19.45 1.1,-6.91 3.13,-13.34 6.09,-19.28 2.96,-5.95 7.05,-10.86 12.27,-14.75 5.21,-3.89 11.94,-5.84 20.17,-5.84 8.24,0 14.96,1.95 20.17,5.84 5.21,3.89 9.31,8.8 12.27,14.75 2.97,5.94 4.99,12.37 6.09,19.28 1.1,6.91 1.65,13.39 1.65,19.45 0,4.21 -0.22,8.59 -0.66,13.12 -0.43,4.54 -1.24,9 -2.39,13.37"
         style="fill:#1c418a;fill-opacity:1;fill-rule:nonzero;stroke:none"
         id="path38" /><path
         d="m 2181.54,4579.72 c -1.97,2.6 -4.39,4.76 -7.24,6.49 -2.86,1.72 -6.1,2.92 -9.72,3.56 v 0.33 c 5.93,1.72 10.73,4.97 14.41,9.72 3.68,4.75 5.52,10.15 5.52,16.21 0,5.29 -0.96,9.9 -2.88,13.85 -1.93,3.94 -4.53,7.21 -7.83,9.8 -3.29,2.6 -7.1,4.51 -11.44,5.76 -4.34,1.24 -8.87,1.86 -13.59,1.86 -7.79,0 -14.84,-1.76 -21.16,-5.26 -6.31,-3.52 -11.01,-8.95 -14.07,-16.29 l 16.13,-5.35 c 1.76,3.99 4.36,7.21 7.82,9.64 3.46,2.43 7.33,3.65 11.62,3.65 5.59,0 10.26,-1.57 13.99,-4.71 3.73,-3.12 5.6,-7.77 5.6,-13.93 0,-2.81 -0.44,-5.35 -1.32,-7.62 -0.88,-2.26 -2.41,-4.15 -4.61,-5.66 -2.2,-1.52 -5.21,-2.68 -9.06,-3.48 -3.84,-0.82 -8.78,-1.23 -14.81,-1.23 v -13.61 c 3.72,0 7.51,-0.22 11.36,-0.65 3.84,-0.43 7.35,-1.38 10.54,-2.83 3.18,-1.46 5.78,-3.62 7.82,-6.49 2.03,-2.86 3.04,-6.67 3.04,-11.42 0,-3.14 -0.6,-5.97 -1.81,-8.51 -1.2,-2.54 -2.83,-4.69 -4.92,-6.48 -2.07,-1.78 -4.45,-3.19 -7.13,-4.22 -2.68,-1.02 -5.55,-1.53 -8.61,-1.53 -6.13,0 -10.75,1.34 -13.86,4.05 -3.12,2.7 -5.61,6.81 -7.47,12.31 l -16.79,-5.02 c 2.63,-8.64 7.32,-14.96 14.07,-18.96 6.76,-4 14.58,-6 23.47,-6 5.16,0 10.07,0.71 14.74,2.11 4.66,1.41 8.78,3.48 12.34,6.24 3.58,2.75 6.43,6.21 8.57,10.37 2.14,4.16 3.21,9 3.21,14.51 0,3.57 -0.49,6.94 -1.48,10.12 -0.99,3.19 -2.47,6.08 -4.45,8.67"
         style="fill:#1c418a;fill-opacity:1;fill-rule:nonzero;stroke:none"
         id="path40" /><path
         d="m 2770.53,4381.89 c -3.44,-3.29 -7.91,-4.94 -13.42,-4.94 -2.48,0 -4.84,0.41 -7.09,1.22 -2.25,0.81 -4.22,1.97 -5.92,3.46 -1.7,1.49 -3.05,3.34 -4.06,5.55 -1.01,2.21 -1.52,4.72 -1.52,7.52 0,5.16 1.75,9.37 5.24,12.67 3.48,3.3 7.94,4.99 13.35,5.08 2.57,0 4.98,-0.38 7.23,-1.15 2.25,-0.76 4.22,-1.9 5.92,-3.39 1.69,-1.48 3.03,-3.34 3.99,-5.55 0.97,-2.21 1.45,-4.77 1.45,-7.66 0,-5.23 -1.72,-9.5 -5.17,-12.81 z m -27.67,51.56 c -0.69,1.8 -1.03,3.66 -1.03,5.55 0,4.52 1.49,8.18 4.47,10.99 2.99,2.79 6.59,4.19 10.81,4.19 4.59,0 8.28,-1.42 11.08,-4.27 2.81,-2.84 4.2,-6.48 4.2,-10.91 0,-1.98 -0.32,-3.87 -0.96,-5.68 -0.64,-1.81 -1.61,-3.42 -2.89,-4.81 -1.29,-1.4 -2.87,-2.53 -4.75,-3.39 -1.88,-0.86 -4.11,-1.29 -6.68,-1.29 -2.48,0 -4.66,0.46 -6.54,1.36 -1.88,0.9 -3.46,2.05 -4.75,3.45 -1.29,1.41 -2.27,3.01 -2.96,4.81 z m 40.69,-23.65 c -1.65,2.04 -3.6,3.76 -5.85,5.16 -2.25,1.4 -4.71,2.46 -7.37,3.18 v 0.41 c 1.83,0.45 3.67,1.26 5.51,2.44 1.83,1.17 3.46,2.66 4.88,4.47 1.42,1.8 2.6,4 3.51,6.57 0.92,2.58 1.38,5.53 1.38,8.88 0,3.6 -0.76,6.88 -2.27,9.81 -1.52,2.94 -3.57,5.45 -6.2,7.53 -2.61,2.07 -5.64,3.68 -9.08,4.8 -3.44,1.14 -7.09,1.7 -10.95,1.7 -3.85,0 -7.5,-0.56 -10.94,-1.7 -3.45,-1.12 -6.47,-2.73 -9.09,-4.8 -2.62,-2.08 -4.68,-4.59 -6.19,-7.53 -1.52,-2.93 -2.28,-6.21 -2.28,-9.81 0,-3.35 0.46,-6.3 1.38,-8.88 0.91,-2.57 2.09,-4.77 3.51,-6.57 1.42,-1.81 3.05,-3.3 4.89,-4.47 1.84,-1.18 3.67,-1.99 5.51,-2.44 v -0.41 c -2.66,-0.72 -5.12,-1.78 -7.37,-3.18 -2.25,-1.4 -4.2,-3.12 -5.85,-5.16 -1.65,-2.03 -2.96,-4.3 -3.93,-6.84 -0.96,-2.52 -1.44,-5.28 -1.44,-8.26 0,-4.52 0.82,-8.58 2.48,-12.19 1.65,-3.62 3.9,-6.69 6.74,-9.21 2.84,-2.53 6.22,-4.46 10.12,-5.76 3.9,-1.31 8.06,-1.97 12.46,-1.97 4.4,0 8.56,0.66 12.47,1.97 3.9,1.3 7.27,3.23 10.11,5.76 2.85,2.52 5.1,5.59 6.75,9.21 1.65,3.61 2.47,7.67 2.47,12.19 0,2.98 -0.48,5.74 -1.44,8.26 -0.96,2.54 -2.27,4.81 -3.92,6.84"
         style="fill:#1c418a;fill-opacity:1;fill-rule:nonzero;stroke:none"
         id="path42" /><path
         d="m 2582.26,4441.04 7.71,-9.08 17.9,16.26 v -81.02 h 13.22 v 95.93 h -11.71 l -27.12,-22.09"
         style="fill:#1c418a;fill-opacity:1;fill-rule:nonzero;stroke:none"
         id="path44" /><path
         d="m 2918.68,4381.89 c -3.44,-3.29 -7.91,-4.94 -13.43,-4.94 -2.48,0 -4.83,0.41 -7.09,1.22 -2.25,0.81 -4.22,1.97 -5.92,3.46 -1.7,1.49 -3.04,3.34 -4.06,5.55 -1.01,2.21 -1.51,4.72 -1.51,7.52 0,5.16 1.74,9.37 5.23,12.67 3.49,3.3 7.94,4.99 13.35,5.08 2.58,0 4.98,-0.38 7.24,-1.15 2.24,-0.76 4.22,-1.9 5.91,-3.39 1.69,-1.48 3.03,-3.34 3.99,-5.55 0.98,-2.21 1.45,-4.77 1.45,-7.66 0,-5.23 -1.71,-9.5 -5.16,-12.81 z m -27.68,51.56 c -0.68,1.8 -1.02,3.66 -1.02,5.55 0,4.52 1.48,8.18 4.47,10.99 2.98,2.79 6.58,4.19 10.8,4.19 4.59,0 8.28,-1.42 11.08,-4.27 2.81,-2.84 4.2,-6.48 4.2,-10.91 0,-1.98 -0.32,-3.87 -0.95,-5.68 -0.65,-1.81 -1.61,-3.42 -2.89,-4.81 -1.29,-1.4 -2.88,-2.53 -4.76,-3.39 -1.88,-0.86 -4.1,-1.29 -6.68,-1.29 -2.48,0 -4.66,0.46 -6.53,1.36 -1.89,0.9 -3.47,2.05 -4.76,3.45 -1.29,1.41 -2.26,3.01 -2.96,4.81 z m 40.69,-23.65 c -1.65,2.04 -3.6,3.76 -5.85,5.16 -2.25,1.4 -4.71,2.46 -7.37,3.18 v 0.41 c 1.84,0.45 3.67,1.26 5.51,2.44 1.84,1.17 3.47,2.66 4.88,4.47 1.43,1.8 2.6,4 3.52,6.57 0.92,2.58 1.38,5.53 1.38,8.88 0,3.6 -0.77,6.88 -2.28,9.81 -1.51,2.94 -3.57,5.45 -6.19,7.53 -2.62,2.07 -5.65,3.68 -9.09,4.8 -3.44,1.14 -7.09,1.7 -10.95,1.7 -3.85,0 -7.5,-0.56 -10.94,-1.7 -3.44,-1.12 -6.47,-2.73 -9.09,-4.8 -2.62,-2.08 -4.68,-4.59 -6.19,-7.53 -1.51,-2.93 -2.28,-6.21 -2.28,-9.81 0,-3.35 0.46,-6.3 1.38,-8.88 0.92,-2.57 2.09,-4.77 3.52,-6.57 1.41,-1.81 3.04,-3.3 4.88,-4.47 1.84,-1.18 3.67,-1.99 5.51,-2.44 v -0.41 c -2.66,-0.72 -5.12,-1.78 -7.37,-3.18 -2.25,-1.4 -4.2,-3.12 -5.85,-5.16 -1.66,-2.03 -2.95,-4.3 -3.92,-6.84 -0.97,-2.52 -1.45,-5.28 -1.45,-8.26 0,-4.52 0.82,-8.58 2.48,-12.19 1.65,-3.62 3.9,-6.69 6.74,-9.21 2.84,-2.53 6.22,-4.46 10.13,-5.76 3.9,-1.31 8.05,-1.97 12.45,-1.97 4.4,0 8.56,0.66 12.47,1.97 3.9,1.3 7.27,3.23 10.11,5.76 2.85,2.52 5.1,5.59 6.76,9.21 1.64,3.61 2.47,7.67 2.47,12.19 0,2.98 -0.48,5.74 -1.45,8.26 -0.96,2.54 -2.26,4.81 -3.92,6.84"
         style="fill:#1c418a;fill-opacity:1;fill-rule:nonzero;stroke:none"
         id="path46" /><path
         d="m 3084.1,4401.81 c -0.83,2.67 -2.07,5.08 -3.72,7.26 -1.65,2.16 -3.67,3.97 -6.06,5.41 -2.39,1.45 -5.09,2.45 -8.12,2.98 v 0.27 c 4.96,1.45 8.97,4.16 12.05,8.13 3.07,3.98 4.61,8.5 4.61,13.55 0,4.43 -0.8,8.29 -2.4,11.59 -1.62,3.3 -3.79,6.03 -6.55,8.19 -2.75,2.17 -5.94,3.77 -9.57,4.81 -3.62,1.04 -7.41,1.56 -11.36,1.56 -6.52,0 -12.41,-1.46 -17.68,-4.4 -5.28,-2.94 -9.21,-7.47 -11.78,-13.61 l 13.5,-4.48 c 1.46,3.35 3.64,6.03 6.53,8.06 2.89,2.04 6.12,3.05 9.72,3.05 4.67,0 8.57,-1.3 11.7,-3.93 3.11,-2.62 4.67,-6.5 4.67,-11.65 0,-2.35 -0.37,-4.47 -1.1,-6.37 -0.73,-1.89 -2.02,-3.47 -3.86,-4.74 -1.83,-1.26 -4.35,-2.24 -7.56,-2.91 -3.22,-0.68 -7.35,-1.02 -12.4,-1.02 v -11.38 c 3.12,0 6.29,-0.18 9.5,-0.54 3.22,-0.36 6.15,-1.15 8.81,-2.37 2.66,-1.22 4.85,-3.03 6.55,-5.43 1.7,-2.38 2.55,-5.57 2.55,-9.54 0,-2.63 -0.51,-5 -1.52,-7.12 -1,-2.12 -2.37,-3.93 -4.11,-5.41 -1.74,-1.5 -3.73,-2.67 -5.97,-3.52 -2.24,-0.87 -4.64,-1.3 -7.2,-1.3 -5.12,0 -8.99,1.13 -11.59,3.39 -2.6,2.25 -4.69,5.69 -6.24,10.3 l -14.05,-4.2 c 2.21,-7.23 6.13,-12.52 11.78,-15.86 5.64,-3.34 12.18,-5.01 19.62,-5.01 4.3,0 8.42,0.59 12.32,1.77 3.9,1.17 7.35,2.91 10.32,5.21 2.98,2.31 5.38,5.2 7.16,8.67 1.79,3.48 2.69,7.52 2.69,12.13 0,2.98 -0.41,5.8 -1.24,8.46"
         style="fill:#1c418a;fill-opacity:1;fill-rule:nonzero;stroke:none"
         id="path48" /><path
         d="m 2833.29,2284.3 0.16,0.27 0.17,-0.27 c 0,0 0.16,0.23 0.18,0.26 0.02,-0.03 0.18,-0.26 0.18,-0.26 l 0.16,0.27 0.17,-0.27 c 0,0 3.72,5.14 10.24,13.44 v 0.87 c 27.05,34.34 100.9,121.12 176.03,148.13 94.36,33.92 454.81,62.55 680.22,310.19 60.21,66.14 111.55,139.07 148.74,221.97 H 1818.06 c 37.19,-82.9 88.53,-155.83 148.74,-221.97 225.41,-247.64 585.85,-276.27 680.22,-310.19 75.13,-27.01 148.98,-113.79 176.02,-148.13"
         style="fill:#00a650;fill-opacity:1;fill-rule:nonzero;stroke:none"
         id="path50" /><path
         d="m 3809.62,3153.54 c -3.8,24.28 -9.93,63.37 -13.73,87.66 -190,-33.61 -379.81,-68.48 -569.66,-103.1 -6.96,21.1 -15.61,41.43 -25.85,60.83 181.71,72.24 364.14,142.94 543.56,219.99 -10.55,22.27 -27.54,58.11 -38.09,80.38 -176.64,-86.43 -352.71,-174.07 -528.91,-261.44 -12.02,17.61 -25.44,34.2 -40.07,49.69 156.94,121.83 315.2,242.21 468.56,368.07 -16.47,18.47 -42.96,48.2 -59.43,66.68 -147.69,-134.05 -294.45,-269.14 -441.44,-403.97 -15.7,13.33 -32.49,25.44 -50.14,36.32 117.84,162.78 237.5,324.41 350.73,490.07 -21.06,13.21 -54.95,34.45 -76.01,47.65 -105.16,-171.78 -209.09,-344.33 -313.36,-516.68 -18.09,8.63 -36.9,16 -56.35,21.95 67.56,190.88 137.36,381.11 199.68,573.49 -23.98,6.87 -62.55,17.94 -86.53,24.82 -52.6,-195.68 -103.78,-391.76 -155.36,-587.73 -19.25,3.72 -38.99,6.11 -59.12,7.07 10.63,203.15 23.69,406.3 28.85,609.45 -24.97,0 -65.16,0 -90.13,0 5.16,-203.23 11.82,-406.45 18.03,-609.67 -21.85,-1.22 -43.21,-4.17 -64.01,-8.63 -51.74,196.56 -103.07,393.24 -155.82,589.51 -23.98,-6.88 -62.56,-17.95 -86.53,-24.82 62.58,-193.22 132.73,-384.27 200.56,-575.98 -19.09,-6.27 -37.55,-13.85 -55.27,-22.7 -104.93,173.42 -209.5,347.06 -315.32,519.92 -21.06,-13.2 -54.96,-34.44 -76.02,-47.65 114.1,-166.91 234.7,-329.74 353.41,-493.77 -17.13,-10.98 -33.32,-23.23 -48.54,-36.54 -148.43,136.13 -296.59,272.54 -445.71,407.89 -16.47,-18.48 -42.97,-48.21 -59.44,-66.68 155.01,-127.2 314.98,-248.82 473.58,-371.99 -14.09,-15.31 -27.06,-31.64 -38.65,-48.97 -178.34,88.43 -356.54,177.16 -535.34,264.64 -10.55,-22.27 -27.54,-58.11 -38.1,-80.38 181.8,-78.07 366.68,-149.62 550.77,-222.85 -9.83,-19.01 -18.19,-38.86 -24.88,-59.46 -192.58,35.11 -385.11,70.5 -577.84,104.59 -3.8,-24.29 -9.92,-63.38 -13.72,-87.66 192.7,-24.39 386.47,-41.95 580,-61.1 -3.55,-17.7 -6,-35.79 -7.1,-54.25 h 814.51 c -1.13,18.75 -3.61,37.12 -7.26,55.09 190.69,18.82 381.61,36.23 571.49,60.26"
         style="fill:#fff319;fill-opacity:1;fill-rule:evenodd;stroke:none"
         id="path52" /><path
         d="m 2770.1,3195.69 c -41.04,51.6 -120.95,52.92 -164.33,2.16 -2.67,-3.1 -6.17,-4.85 -8.01,-3.62 -1.83,1.22 -1.21,5.37 1.65,8.96 45.84,57.43 134.85,58.75 183.03,2.16 3.03,-3.53 2.32,-8.65 -1.34,-11.12 -3.67,-2.48 -8.49,-1.7 -11,1.46"
         style="fill:#652f15;fill-opacity:1;fill-rule:nonzero;stroke:none"
         id="path54" /><path
         d="m 2761.01,3174.6 c -36.95,43.39 -105.2,42.38 -140.35,-1.66 -2.19,-2.75 -2.68,-5.94 -1.26,-6.87 1.4,-0.94 4.08,0.4 6.14,2.77 18.2,21.3 44.78,30.56 70.28,28.17 -6.01,-4.42 -9.96,-11.41 -9.96,-19.37 0,-13.39 11.03,-24.24 24.63,-24.24 4.35,0 8.42,1.11 11.96,3.05 -7.68,0.94 -13.64,7.39 -13.64,15.22 0,8.47 6.99,15.34 15.59,15.34 1.91,0 3.73,-0.34 5.42,-0.95 0.03,-0.02 0.06,-0.03 0.09,-0.05 0.54,-0.2 0.96,-0.58 1.46,-0.84 7.5,-4.68 14.35,-10.66 20.18,-17.98 1.92,-2.43 5.62,-3.02 8.43,-1.12 2.81,1.9 3.35,5.82 1.03,8.53"
         style="fill:#652f15;fill-opacity:1;fill-rule:nonzero;stroke:none"
         id="path56" /><path
         d="m 3056.65,3195.69 c -41.05,51.6 -120.96,52.92 -164.34,2.16 -2.67,-3.1 -6.17,-4.85 -8.01,-3.62 -1.83,1.22 -1.21,5.37 1.64,8.96 45.84,57.43 134.86,58.75 183.03,2.16 3.03,-3.53 2.33,-8.65 -1.34,-11.12 -3.66,-2.48 -8.48,-1.7 -10.98,1.46"
         style="fill:#652f15;fill-opacity:1;fill-rule:nonzero;stroke:none"
         id="path58" /><path
         d="m 3047.55,3174.6 c -36.95,43.39 -105.2,42.38 -140.36,-1.66 -2.18,-2.75 -2.67,-5.94 -1.26,-6.87 1.41,-0.94 4.09,0.4 6.15,2.77 18.19,21.3 44.77,30.56 70.28,28.17 -6.02,-4.42 -9.96,-11.41 -9.96,-19.37 0,-13.39 11.02,-24.24 24.63,-24.24 4.34,0 8.43,1.11 11.96,3.05 -7.69,0.94 -13.64,7.39 -13.64,15.22 0,8.47 6.98,15.34 15.59,15.34 1.91,0 3.73,-0.34 5.41,-0.95 0.04,-0.02 0.06,-0.03 0.1,-0.05 0.53,-0.2 0.95,-0.58 1.46,-0.84 7.5,-4.68 14.35,-10.66 20.17,-17.98 1.93,-2.43 5.63,-3.02 8.44,-1.12 2.8,1.9 3.35,5.82 1.03,8.53"
         style="fill:#652f15;fill-opacity:1;fill-rule:nonzero;stroke:none"
         id="path60" /><path
         d="m 3764.71,3014.07 c -0.07,0.11 -0.16,0.2 -0.24,0.31 l -224.9,268.14 c -5.83,6.94 -14.66,7.97 -21.46,3.26 -0.11,-0.07 -0.21,-0.13 -0.32,-0.2 -1.18,-0.86 -2.31,-1.84 -3.33,-3.05 0,0 0,0 -0.01,-0.01 l -133.97,-159.72 -68.54,81.73 c -4.84,5.77 -11.76,7.42 -17.86,5.14 v 0 0 c -1.24,-0.46 -2.45,-1.08 -3.6,-1.88 -0.1,-0.07 -0.21,-0.13 -0.32,-0.2 -1.18,-0.85 -2.31,-1.84 -3.34,-3.06 l -134.39,-160.24 -66.73,79.56 c -5.37,6.41 -13.05,8.24 -19.82,5.71 v 0 -0.01 c -1.38,-0.51 -2.71,-1.19 -3.99,-2.08 -0.12,-0.08 -0.24,-0.14 -0.36,-0.23 -1.31,-0.95 -2.57,-2.04 -3.7,-3.39 L 2808.2,2826.23 c -0.09,-0.11 -0.19,-0.22 -0.27,-0.33 -0.77,-0.92 -1.44,-1.88 -2.03,-2.88 -2.97,-4.95 -3.93,-10.7 -3.28,-16.16 1.3,-10.91 9.01,-20.68 19.82,-20.68 h 99.37 399.27 c 17.31,0 26.65,25 14.52,39.72 -0.09,0.11 -0.18,0.22 -0.27,0.33 l -62.13,74.07 h 250.81 c 15.59,0 24,22.53 13.08,35.79 -0.08,0.1 -0.17,0.2 -0.25,0.3 l -35.14,41.9 h 249.94 c 15.58,0 24,22.53 13.07,35.78"
         style="fill:#ffffff;fill-opacity:1;fill-rule:nonzero;stroke:none"
         id="path62" /><path
         d="m 2034.84,3310.51 c -0.49,0.49 -0.49,1.28 0.01,1.75 1.24,1.15 2.28,2.29 2.79,2.1 1.27,-0.49 2.64,-2.04 2.87,-3.33 0.13,-0.76 -1.85,-2.61 -2.9,-2.63 -0.83,-0.02 -1.67,1 -2.77,2.11 z m -139.03,-203.28 c 0.17,-0.22 0.27,-0.49 0.26,-0.77 -0.07,-2.8 -2.66,-5.22 0.17,-7.48 3.55,-2.84 6.56,-1.28 9.35,-0.24 5.83,2.17 11.23,5.45 16.91,8.06 1.16,0.54 3.66,0.68 4.05,0.07 2.72,-4.24 6.54,-2.74 9.64,-1.53 3.87,1.52 7.46,3.9 10.88,6.31 2.05,1.44 3.05,1.34 5.2,-0.09 1.95,-1.31 4.45,-1.83 6.47,-2.32 0.79,-0.19 1.18,-1.06 0.79,-1.77 -0.59,-1.08 -1.28,-2.34 -1.77,-3.66 -1.87,-5.07 -3.27,-10.33 -5.42,-15.27 -2.12,-4.9 -1.24,-9.02 0.83,-13.76 4.88,-11.17 9.97,-22.4 13.25,-34.07 3.81,-13.52 5.83,-27.54 8.48,-41.37 0.5,-2.57 -0.1,-5.37 0.55,-7.87 0.64,-2.52 2.2,-4.81 3.42,-7.17 0.46,-0.9 1.28,-1.65 1.58,-2.58 2.14,-6.78 4.66,-8.94 11.77,-9.34 3.53,-0.2 7.07,-0.08 10.97,-0.05 0.84,0.01 1.43,0.81 1.2,1.61 -1.73,5.87 -5.41,8.88 -10.46,10.78 3.13,0.99 7.48,0.01 10,-3.65 4.55,-6.63 10.58,-5.28 16.85,-4.33 2.81,0.43 5.68,0.58 8.53,0.8 0.7,0.05 1.2,0.67 1.15,1.36 -0.48,5.8 -7.21,7.37 -13.54,8.64 -5.96,1.2 -12.04,2.44 -17.59,4.74 -3.15,1.31 -6.64,4.34 -7.76,7.39 -4.74,12.91 -9.17,25.99 -12.68,39.27 -2.63,9.99 -3.89,20.35 -5.4,30.61 -1.35,9.17 1.61,17.53 6.53,25.14 6.68,10.35 13.85,20.38 20.49,30.75 1.74,2.73 3.25,5.6 4.8,8.46 0.69,1.25 2.63,0.55 2.32,-0.84 -0.19,-0.9 -0.39,-1.84 -0.61,-2.82 -0.22,-1.02 0.86,-1.84 1.79,-1.36 4.09,2.06 7.78,3.81 11.27,5.9 16.36,9.79 30.38,21.81 36.87,40.27 4.97,14.08 3.91,28.25 -1.9,41.77 -4.4,10.22 -10.74,19.65 -15.06,29.9 -5.49,13.03 -10.23,26.46 -5.15,40.97 0.29,0.84 -0.05,1.9 -0.42,3.08 -0.26,0.8 0.37,1.6 1.23,1.58 5.65,-0.19 10.1,3.75 15.07,6.79 2.61,1.59 6.22,1.67 9.41,2.24 1.86,0.34 3.84,0.04 5.65,0.49 0.7,0.18 1.28,0.79 1.86,1.4 0.45,0.47 0.45,1.2 0.01,1.68 -0.51,0.55 -1.03,1.09 -1.66,1.36 -3.02,1.29 -6.28,2.1 -9.19,3.57 -2.58,1.3 -5.18,2.84 -7.3,4.77 -7.9,7.17 -20.52,6.21 -26.5,-2.58 -6.34,-9.33 -8.07,-19.92 -7.21,-30.89 1.04,-13.31 4.55,-26.08 10.01,-38.35 3.64,-8.2 6.94,-16.54 10.18,-24.9 2.57,-6.62 3.61,-13.41 -1.99,-19.1 -5.85,-5.94 -13.32,-6.26 -20.66,-3.62 -8.1,2.92 -15.78,6.99 -23.84,10.08 -15.23,5.86 -30.86,6.64 -46.87,3.26 -13.93,-2.94 -27.12,-7.61 -40.03,-13.55 -6.3,-2.89 -13.75,-3.27 -20.38,-5.6 -17.65,-6.19 -31.55,-17.2 -41.66,-32.79 -1.67,-2.57 -1.97,-4.55 0.63,-6.93 0.94,-0.86 1,-3.63 0.35,-5.03 -5.45,-11.76 -8.87,-23.91 -7.49,-36.91 1.39,-13.01 7.52,-23.19 19.48,-29.51 2.32,-1.23 4.69,-2.53 6.95,0.52 0.37,0.5 1.95,2.79 2.94,3.4 2.77,1.74 4.95,0.14 6.27,2.99 1.09,2.34 0.68,5 1.92,4.82 0.73,-0.11 1.38,0.41 1.43,1.14 0.09,1.35 0.23,2.72 -0.22,3.88 -2.25,5.78 8.58,2.5 10.57,3.14 8.35,2.69 10.86,11.09 12.43,9.11"
         style="fill:#652f15;fill-opacity:1;fill-rule:nonzero;stroke:none"
         id="path64" /><path
         d="m 1908.67,3029.44 c 0.83,13.61 0.84,27.28 0.77,40.92 -0.02,4.11 -1.17,8.3 -2.32,12.3 -1.66,5.78 -0.01,11.49 5.05,14.69 3.63,2.29 7.42,4.32 11.11,6.43 0.38,0.22 0.87,0.2 1.25,-0.02 10.8,-6.25 17.38,2.7 25.11,6.61 0.46,0.23 1.04,0.13 1.43,-0.23 0.82,-0.76 1.59,-1.48 2.32,-2.15 0.54,-0.5 0.51,-1.35 -0.04,-1.83 -5.58,-4.73 -11.11,-9.17 -16.24,-14.01 -5.62,-5.28 -10.41,-11.26 -11.99,-19.09 -4.14,-20.44 -6.28,-41 -5.28,-61.93 0.66,-14.14 5.6,-18.88 18.23,-21.88 5.46,-1.29 11.04,-2.11 16.5,-3.38 4.2,-0.98 6.33,-3.58 6.43,-6.96 0.02,-0.64 -0.44,-1.2 -1.08,-1.29 -3.43,-0.48 -6.76,-1.01 -10.1,-1.35 -5.52,-0.57 -10.77,-1.15 -14.56,4.68 -2.54,3.9 -6.59,4.8 -9.95,3.73 4.84,-1.96 8.4,-4.91 10.16,-10.35 0.26,-0.79 -0.33,-1.61 -1.18,-1.62 -4.89,-0.07 -9.4,-0.4 -13.79,0.14 -5,0.62 -8.79,3.26 -9.12,9.01 -0.05,0.88 -0.96,1.91 -1.75,2.53 -3.9,3.08 -5.5,6.98 -4.89,11.86 1.38,11.05 3.25,22.09 3.93,33.19"
         style="fill:#652f15;fill-opacity:1;fill-rule:nonzero;stroke:none"
         id="path66" /><path
         d="m 2271.86,2976.96 c -26.68,-6.75 -65.17,-6.75 -91.85,0 -25.96,385.7 2.69,736.08 87.47,1083.63 12.02,-3.04 24.13,-3.04 36.16,0 -100.48,-435.94 -85.87,-654.66 -31.78,-1083.63"
         style="fill:#652f15;fill-opacity:1;fill-rule:evenodd;stroke:none"
         id="path68" /><path
         d="m 2302.86,4152.75 156.15,133.95 -50.76,-31.87 38.52,69.33 -51.47,-55.78 32.74,84.44 -46.22,-70.29 28.11,91.93 -43.45,-81.73 22.74,105.07 -39.08,-97.5 14.62,111.63 -32.17,-103.88 4.98,112.33 -19.93,-110.44 -8.39,108.95 -10.39,-112.14 -16.49,104.42 -1.1,-107.77 -24.18,90.2 7.05,-96.35 -29.45,79.8 13.21,-90.22 -37.74,66.99 22.16,-76.97 -42.32,43.54 112.86,-167.64"
         style="fill:#00a650;fill-opacity:1;fill-rule:evenodd;stroke:none"
         id="path70" /><path
         d="m 2293.21,4142.29 -116.29,168.69 26.02,-53.43 -65.29,46 50.06,-57 -81.23,42.15 65.33,-53.63 -89.35,38.55 77.21,-52.3 -103.25,34.88 93.65,-49.93 -110.85,27.73 100.91,-43.95 -112.71,18.41 109,-32.78 -110.91,4.94 111.87,-23.67 -107.33,-3.52 108.59,-14.07 -93.91,-12.75 98.04,-4.73 -84.04,-19.15 92.59,2.03 -72.12,-28.79 80.31,12.37 -49.02,-36.1 182.72,90.05"
         style="fill:#00a650;fill-opacity:1;fill-rule:evenodd;stroke:none"
         id="path72" /><path
         d="m 2470.53,4132.07 113.95,2.46 -113.55,12.37 109.24,15.36 -114.33,2.9 103.89,23.05 -109,-6 88.74,29.72 -96.63,-13.24 77.67,34.17 -89.8,-18.89 63.89,41.5 -75.52,-26.84 39.78,44.48 -158.44,-131.32 151.04,-135.45 -37.24,47.84 73.9,-33.35 -61.48,46.96 88.56,-26.67 -75.61,40.87 95.66,-21.63 -86.86,37.35 108.39,-15.45 -102.34,32.04 114.2,-7.09 -108.11,24.86"
         style="fill:#00a650;fill-opacity:1;fill-rule:evenodd;stroke:none"
         id="path74" /><path
         d="m 2301.61,4137.93 -123.29,-79.5 40.39,18.56 -29.44,-42.26 40.33,33.46 -24.33,-51.83 35.67,42.65 -20.36,-56.63 33.1,49.86 -15.64,-64.97 29.13,59.82 -8.86,-69.28 23.34,63.98 -1.01,-69.96 13.21,68.4 9.76,-68.21 5.41,69.71 16.23,-65.6 -2.02,67.23 22.1,-56.93 -8.34,60.31 26.09,-50.57 -13.17,56.65 32.48,-42.79 -20.09,48.61 35.58,-28.28 -96.27,107.57"
         style="fill:#00a650;fill-opacity:1;fill-rule:evenodd;stroke:none"
         id="path76" /><path
         d="m 1237.33,286.73 c 0,-54.5 -45.03,-91.238 -113.75,-91.238 h -102.49 v 182.469 h 104.86 c 66.94,0 111.38,-30.813 111.38,-90.039 z M 1129.5,421.211 H 974.289 V 6.51172 h 46.801 V 152.84 h 100.71 c 88.27,0 162.92,46.219 162.92,135.672 v 1.179 c 0,81.75 -61.61,131.52 -155.22,131.52"
         style="fill:#1c418a;fill-opacity:1;fill-rule:nonzero;stroke:none"
         id="path78" /><path
         d="m 1405.02,209.711 v 168.25 h 127.96 c 66.95,0 106.04,-30.813 106.04,-81.75 v -1.18 c 0,-53.312 -44.42,-85.32 -106.63,-85.32 z m 281.4,87.09 v 1.179 c 0,32.59 -11.85,61.629 -31.99,81.758 -26.07,26.071 -66.94,41.473 -117.89,41.473 H 1358.22 V 6.51172 h 46.8 V 167.648 H 1523.5 L 1643.77,6.51172 h 57.46 L 1573.86,175.941 c 65.16,11.86 112.56,52.141 112.56,120.86"
         style="fill:#1c418a;fill-opacity:1;fill-rule:nonzero;stroke:none"
         id="path80" /><path
         d="m 1821.53,194.309 h 226.3 v 42.66 h -226.3 v 141.582 h 252.96 v 42.66 H 1774.73 V 6.51172 h 302.73 V 49.1719 H 1821.53 V 194.309"
         style="fill:#1c418a;fill-opacity:1;fill-rule:nonzero;stroke:none"
         id="path82" /><path
         d="m 2159.84,6.51172 h 46.8 V 187.199 h 224.53 v 42.66 h -224.53 v 148.102 h 251.19 v 43.25 H 2159.84 V 6.51172"
         style="fill:#1c418a;fill-opacity:1;fill-rule:nonzero;stroke:none"
         id="path84" /><path
         d="m 2583.45,194.309 h 226.31 v 42.66 h -226.31 v 141.582 h 252.97 v 42.66 H 2536.65 V 6.51172 h 302.73 V 49.1719 H 2583.45 V 194.309"
         style="fill:#1c418a;fill-opacity:1;fill-rule:nonzero;stroke:none"
         id="path86" /><path
         d="m 2925.91,6.51172 h 46.8 V 421.211 h -46.8 V 6.51172"
         style="fill:#1c418a;fill-opacity:1;fill-rule:nonzero;stroke:none"
         id="path88" /><path
         d="m 3052.7,377.961 h 139.22 V 6.51172 h 47.39 V 377.961 h 139.22 v 43.25 H 3052.7 v -43.25"
         style="fill:#1c418a;fill-opacity:1;fill-rule:nonzero;stroke:none"
         id="path90" /><path
         d="m 3746.46,180.09 c 0,-90.6291 -48.58,-136.84 -125,-136.84 -79.38,0 -126.78,50.3516 -126.78,139.801 v 238.16 h -46.8 V 180.09 C 3447.88,62.8008 3517.78,0 3620.27,0 c 103.68,0 172.99,62.8008 172.99,183.652 v 237.559 h -46.8 V 180.09"
         style="fill:#1c418a;fill-opacity:1;fill-rule:nonzero;stroke:none"
         id="path92" /><path
         d="m 3939.03,209.711 v 168.25 H 4067 c 66.94,0 106.04,-30.813 106.04,-81.75 v -1.18 c 0,-53.312 -44.43,-85.32 -106.64,-85.32 z m 281.41,87.09 v 1.179 c 0,32.59 -11.85,61.629 -32,81.758 -26.06,26.071 -66.94,41.473 -117.89,41.473 H 3892.23 V 6.51172 h 46.8 V 167.648 h 118.49 L 4177.78,6.51172 h 57.46 L 4107.88,175.941 c 65.16,11.86 112.56,52.141 112.56,120.86"
         style="fill:#1c418a;fill-opacity:1;fill-rule:nonzero;stroke:none"
         id="path94" /><path
         d="m 4388.72,158.172 94.78,211.488 94.2,-211.488 z M 4462.18,424.18 4273.2,6.51172 h 47.99 l 49.17,109.59728 h 225.71 L 4644.64,6.51172 h 50.37 L 4506.02,424.18 h -43.84"
         style="fill:#1c418a;fill-opacity:1;fill-rule:nonzero;stroke:none"
         id="path96" /><path
         d="M 400.344,1028 220.617,1319.65 H 0 V 566.309 H 204.48 V 996.781 L 396.035,704.059 h 4.309 l 192.64,294.882 V 566.309 H 800.691 V 1319.65 H 580.066 L 400.344,1028"
         style="fill:#1c418a;fill-opacity:1;fill-rule:nonzero;stroke:none"
         id="path98" /><path
         d="m 1506.65,940.832 c 0,-108.703 -76.4,-201.25 -191.56,-201.25 -114.07,0 -192.64,94.699 -192.64,203.398 v 2.149 c 0,108.691 76.41,201.251 190.49,201.251 115.15,0 193.71,-94.7 193.71,-203.4 z m -191.56,393.878 c -232.46,0 -406.797,-175.42 -406.797,-391.73 v -2.148 c 0,-216.32 172.187,-389.582 404.647,-389.582 232.46,0 406.8,175.422 406.8,391.73 v 2.149 c 0,216.311 -172.19,389.581 -404.65,389.581"
         style="fill:#1c418a;fill-opacity:1;fill-rule:nonzero;stroke:none"
         id="path100" /><path
         d="m 2423.56,798.77 v 2.152 c 0,140.976 -107.62,196.949 -280.88,234.608 -104.4,23.68 -130.23,38.74 -130.23,73.19 v 2.15 c 0,26.9 24.75,48.42 75.33,48.42 66.73,0 142.06,-25.83 210.94,-74.25 l 104.4,147.44 c -81.8,65.64 -181.88,100.08 -309.95,100.08 -180.8,0 -291.65,-101.16 -291.65,-241.07 v -2.15 c 0,-154.981 123.76,-200.168 284.12,-236.758 102.24,-23.684 126.99,-40.891 126.99,-72.102 v -2.16 c 0,-32.289 -30.14,-51.648 -86.1,-51.648 -87.17,0 -170.04,31.207 -244.3,90.398 L 1766,678.23 c 92.56,-82.859 219.55,-124.832 353,-124.832 182.95,0 304.56,91.473 304.56,245.372"
         style="fill:#1c418a;fill-opacity:1;fill-rule:nonzero;stroke:none"
         id="path102" /><path
         d="m 3114.47,800.922 c 0,140.976 -107.63,196.949 -280.89,234.608 -104.39,23.68 -130.22,38.74 -130.22,73.19 v 2.15 c 0,26.9 24.75,48.42 75.33,48.42 66.73,0 142.06,-25.83 210.94,-74.25 l 104.39,147.44 c -81.79,65.64 -181.88,100.08 -309.95,100.08 -180.8,0 -291.65,-101.16 -291.65,-241.07 v -2.15 c 0,-154.981 123.77,-200.168 284.12,-236.758 102.24,-23.684 126.99,-40.891 126.99,-72.102 v -2.16 c 0,-32.289 -30.14,-51.648 -86.09,-51.648 -87.18,0 -170.05,31.207 -244.3,90.398 L 2456.91,678.23 c 92.55,-82.859 219.55,-124.832 352.99,-124.832 182.96,0 304.57,91.473 304.57,245.372 v 2.152"
         style="fill:#1c418a;fill-opacity:1;fill-rule:nonzero;stroke:none"
         id="path104" /><path
         d="m 3788.14,940.832 c 0,-108.703 -76.41,-201.25 -191.56,-201.25 -114.07,0 -192.64,94.699 -192.64,203.398 v 2.149 c 0,108.691 76.41,201.251 190.49,201.251 115.15,0 193.71,-94.7 193.71,-203.4 z m 213.1,4.297 c 0,216.311 -172.2,389.581 -404.66,389.581 -232.46,0 -406.8,-175.42 -406.8,-391.73 v -2.148 c 0,-216.32 172.19,-389.582 404.65,-389.582 232.46,0 406.81,175.422 406.81,391.73 v 2.149"
         style="fill:#1c418a;fill-opacity:1;fill-rule:nonzero;stroke:none"
         id="path106" /><path
         d="m 4568.37,1047.37 c 0,-54.882 -40.9,-89.331 -111.94,-89.331 h -137.75 v 180.801 h 136.69 c 69.95,0 113,-30.12 113,-89.31 z m 209.85,12.91 v 2.16 c 0,74.26 -22.6,132.37 -66.72,175.42 -50.59,51.66 -130.22,81.79 -245.37,81.79 H 4109.91 V 566.309 h 208.77 v 228.152 h 91.48 L 4561.9,566.309 h 241.07 l -179.72,262.589 c 93.62,39.821 154.97,116.231 154.97,231.382"
         style="fill:#1c418a;fill-opacity:1;fill-rule:nonzero;stroke:none"
         id="path108" /><path
         d="m 5456.2,940.832 c 0,-108.703 -76.41,-201.25 -191.56,-201.25 -114.08,0 -192.64,94.699 -192.64,203.398 v 2.149 c 0,108.691 76.41,201.251 190.5,201.251 115.14,0 193.7,-94.7 193.7,-203.4 z m -191.56,393.878 c -232.46,0 -406.8,-175.42 -406.8,-391.73 v -2.148 c 0,-216.32 172.19,-389.582 404.66,-389.582 232.45,0 406.79,175.422 406.79,391.73 v 2.149 c 0,216.311 -172.19,389.581 -404.65,389.581"
         style="fill:#1c418a;fill-opacity:1;fill-rule:nonzero;stroke:none"
         id="path110" /><path
         d="m 5400.37,1443.58 -135.51,41.17 -80.87,-121.29 h 105.58 l 110.8,80.12"
         style="fill:#1c418a;fill-opacity:1;fill-rule:nonzero;stroke:none"
         id="path112" /><path
         d="m 4369.77,2644.16 c -4.01,5.04 -9.14,9.3 -15.35,12.28 -56.77,27.19 -143.95,4.09 -226.3,33.25 -82.69,29.28 -55.69,91.8 -113.27,96.67 -19.35,1.63 -37.65,-9.33 -44.98,-27.03 -170.83,-411.72 -663.56,-732.07 -1140.78,-732.07 -477.55,0 -960.04,297.33 -1130.14,708.6 -6.58,15.91 -22.11,26.48 -39.54,27.24 -65.88,2.92 -40.62,-43.26 -125.74,-73.41 l -218.88,-33.54 c 297.97,-659.93 846.09,-983.5 1519.57,-983.5 668.59,0 1234.25,368.37 1535.37,971.4 0,0 0.03,0.09 0.04,0.11"
         style="fill:#00a650;fill-opacity:1;fill-rule:nonzero;stroke:none"
         id="path114" /><path
         d="m 2834.36,1672.65 c -673.48,0 -1221.6,323.57 -1519.57,983.5 -7.95,-2.19 -15.56,-4.68 -22.32,-7.93 -21.29,-10.19 -15.67,-26.84 -6.9,-48.48 244.08,-602.45 844.42,-973.82 1545.32,-973.82 700.92,0 1301.26,371.38 1545.32,973.82 6.2,15.3 3.23,32.11 -6.48,44.31 -301.12,-603.03 -866.78,-971.4 -1535.37,-971.4"
         style="fill:#fff319;fill-opacity:1;fill-rule:nonzero;stroke:none"
         id="path116" /><path
         d="m 1248.98,2566.62 c -4.87,11.27 -21.96,7.87 -22.12,-4.37 v -0.05 c -1.07,-94.38 72.9,-228.59 52.52,-303.71 -2.37,-8.75 6.04,-16.6 14.77,-13.76 27.06,8.78 61.54,21.71 98.77,37.27 6.74,2.82 9.11,10.99 4.98,16.94 -58.06,83.79 -108.07,173.36 -148.92,267.68"
         style="fill:#00a650;fill-opacity:1;fill-rule:nonzero;stroke:none"
         id="path118" /><path
         d="m 1508.08,2751.69 c -68.74,153.8 -101.54,325.87 -88.62,505.13 1.55,21.46 3.76,42.69 6.57,63.72 1.3,9.67 -9.63,16.48 -17.89,11.09 -77.09,-50.27 -152.68,-135.58 -222.24,-234.67 -3.75,-5.34 -11.29,-6.68 -16.58,-2.78 -115.18,85 -153.92,194.28 -243.218,285.64 -3.747,-29.07 -6.786,-58.33 -8.922,-87.91 -28.059,-389.16 91.11,-755.1 310.83,-1045.14 10.57,-10.59 19.56,-4.16 21.17,3.71 16.32,50.55 -23.06,137.53 -41.33,226.86 -23.8,116.51 -8.95,226.78 138.74,233.53 42.71,1.94 90.84,1.02 137.56,17.55 5.04,1.79 11.93,5.04 18.68,8.48 5.46,2.78 7.72,9.24 5.25,14.79"
         style="fill:#00a650;fill-opacity:1;fill-rule:nonzero;stroke:none"
         id="path120" /><path
         d="m 4752.12,3291.91 c -2.14,29.58 -5.18,58.84 -8.93,87.91 -89.3,-91.36 -128.03,-200.64 -243.22,-285.64 -5.29,-3.9 -12.83,-2.56 -16.58,2.78 -69.56,99.09 -145.14,184.4 -222.24,234.67 -8.25,5.39 -19.18,-1.42 -17.89,-11.09 2.81,-21.03 5.02,-42.26 6.57,-63.72 12.92,-179.26 -19.87,-351.33 -88.61,-505.13 -2.48,-5.55 -0.22,-12.01 5.24,-14.79 6.75,-3.44 13.64,-6.69 18.68,-8.48 46.72,-16.53 94.86,-15.61 137.56,-17.55 147.69,-6.75 162.54,-117.02 138.74,-233.53 -18.27,-89.33 -57.64,-176.31 -41.33,-226.86 1.61,-7.87 10.6,-14.3 21.17,-3.71 219.72,290.04 338.89,655.98 310.84,1045.14"
         style="fill:#00a650;fill-opacity:1;fill-rule:nonzero;stroke:none"
         id="path122" /><path
         d="m 4442.44,2562.2 v 0.05 c -0.17,12.24 -17.25,15.64 -22.13,4.37 -40.84,-94.32 -90.86,-183.89 -148.92,-267.68 -4.13,-5.95 -1.75,-14.12 4.98,-16.94 37.24,-15.56 71.71,-28.49 98.77,-37.27 8.74,-2.84 17.14,5.01 14.77,13.76 -20.37,75.12 53.59,209.33 52.53,303.71"
         style="fill:#00a650;fill-opacity:1;fill-rule:nonzero;stroke:none"
         id="path124" /><path
         d="m 1693.54,2446.77 -80.19,-26.72 -0.22,0.27 45.5,71.18 -25.04,32.07 -96.23,-75.13 16.56,-21.2 73.8,57.62 0.21,-0.27 -54.81,-81.96 12.62,-16.17 93.54,32.35 0.22,-0.28 -73.81,-57.62 16.56,-21.2 96.22,75.12 -24.93,31.94"
         style="fill:#ffffff;fill-opacity:1;fill-rule:nonzero;stroke:none"
         id="path126" /><path
         d="m 1807.94,2320.49 -18.58,19.46 -53.49,-51.1 c -2.74,-2.62 -5.7,-4.61 -8.86,-5.96 -3.16,-1.35 -6.35,-2.04 -9.56,-2.09 -3.21,-0.06 -6.33,0.54 -9.35,1.79 -3.02,1.25 -5.76,3.17 -8.22,5.75 -2.46,2.56 -4.27,5.42 -5.42,8.53 -1.15,3.12 -1.62,6.28 -1.43,9.48 0.2,3.22 1.04,6.37 2.54,9.47 1.49,3.08 3.61,5.95 6.36,8.56 l 53.49,51.1 -18.58,19.46 -54.25,-51.82 c -5.23,-5 -9.3,-10.4 -12.19,-16.18 -2.9,-5.79 -4.48,-11.79 -4.74,-18.01 -0.27,-6.22 0.9,-12.52 3.52,-18.91 2.62,-6.41 6.87,-12.68 12.75,-18.83 5.79,-6.08 11.83,-10.56 18.1,-13.48 6.27,-2.9 12.52,-4.36 18.75,-4.38 6.21,-0.02 12.28,1.28 18.19,3.9 5.92,2.63 11.49,6.46 16.73,11.46 l 54.24,51.8"
         style="fill:#ffffff;fill-opacity:1;fill-rule:nonzero;stroke:none"
         id="path128" /><path
         d="m 1894.71,2242.97 -55.68,-64.03 -0.25,0.23 16.5,98.07 -27.58,23.99 -80.11,-92.11 20.29,-17.66 57.03,65.58 0.26,-0.23 -16.82,-100.54 26.54,-23.08 80.11,92.11 -20.29,17.67"
         style="fill:#ffffff;fill-opacity:1;fill-rule:nonzero;stroke:none"
         id="path130" /><path
         d="m 1937.97,2208.58 -73.73,-97.3 21.44,-16.25 73.73,97.32 -21.44,16.23"
         style="fill:#ffffff;fill-opacity:1;fill-rule:nonzero;stroke:none"
         id="path132" /><path
         d="m 2030.81,2104.34 26.59,2.58 c -0.35,4.24 -1.27,8.23 -2.76,12 -1.5,3.77 -3.38,7.23 -5.62,10.38 -2.25,3.17 -4.75,6.05 -7.51,8.64 -2.76,2.59 -5.57,4.86 -8.44,6.77 -7.94,5.29 -16.08,8.93 -24.44,10.91 -8.35,1.97 -16.5,2.28 -24.48,0.89 -7.97,-1.39 -15.52,-4.47 -22.64,-9.25 -7.13,-4.78 -13.41,-11.23 -18.83,-19.36 -5.42,-8.14 -8.97,-16.41 -10.65,-24.83 -1.67,-8.41 -1.62,-16.56 0.16,-24.45 1.79,-7.89 5.2,-15.31 10.23,-22.27 5.04,-6.94 11.53,-13.07 19.46,-18.37 6.98,-4.65 14.73,-7.75 23.24,-9.28 8.51,-1.54 16.93,-0.72 25.26,2.43 l -9.37,26.36 c -4.6,-1.92 -9.29,-2.65 -14.11,-2.2 -4.81,0.45 -9.52,2.2 -14.11,5.26 -4.01,2.69 -7.23,6 -9.63,9.95 -2.41,3.96 -3.93,8.26 -4.57,12.9 -0.63,4.63 -0.37,9.43 0.8,14.39 1.16,4.96 3.34,9.82 6.53,14.61 3.12,4.69 6.77,8.53 10.93,11.56 4.16,3.04 8.53,5.13 13.1,6.29 4.58,1.17 9.2,1.36 13.87,0.61 4.67,-0.78 9.12,-2.56 13.32,-5.37 4.21,-2.81 7.44,-5.99 9.69,-9.58 2.24,-3.56 3.57,-7.42 3.98,-11.57"
         style="fill:#ffffff;fill-opacity:1;fill-rule:nonzero;stroke:none"
         id="path134" /><path
         d="m 2143.62,2113.59 -30.39,17.72 -27.55,-12.68 19.66,-11.47 38.28,6.43"
         style="fill:#ffffff;fill-opacity:1;fill-rule:nonzero;stroke:none"
         id="path136" /><path
         d="m 2084.44,2108.97 -61.49,-105.46 23.24,-13.55 61.49,105.46 -23.24,13.55"
         style="fill:#ffffff;fill-opacity:1;fill-rule:nonzero;stroke:none"
         id="path138" /><path
         d="m 2172.53,2018.98 c -1.31,-2.56 -2.88,-4.44 -4.71,-5.63 -1.83,-1.2 -3.8,-1.88 -5.88,-2.05 -2.08,-0.16 -4.22,0.05 -6.43,0.67 -2.2,0.6 -4.39,1.45 -6.54,2.55 l -15.98,8.13 13.13,25.81 12.3,-6.25 c 2.25,-1.14 4.55,-2.48 6.87,-3.97 2.33,-1.51 4.26,-3.23 5.79,-5.18 1.53,-1.93 2.5,-4.07 2.93,-6.42 0.42,-2.34 -0.08,-4.9 -1.48,-7.66 z m 24.89,-12.67 c 3.28,6.47 4.91,12.38 4.87,17.75 -0.05,5.37 -1.29,10.26 -3.76,14.68 -2.46,4.4 -5.94,8.4 -10.44,11.99 -4.5,3.56 -9.57,6.8 -15.2,9.66 l -40.42,20.56 -55.35,-108.8 23.97,-12.21 21.58,42.42 17.52,-8.92 c 5.73,-2.92 11.34,-5.07 16.8,-6.51 5.47,-1.43 10.65,-1.77 15.54,-1.03 4.89,0.74 9.44,2.74 13.69,6 4.24,3.26 7.97,8.06 11.2,14.41"
         style="fill:#ffffff;fill-opacity:1;fill-rule:nonzero;stroke:none"
         id="path140" /><path
         d="m 2233.73,2031.31 -48.98,-111.82 24.63,-10.79 48.99,111.81 -24.64,10.8"
         style="fill:#ffffff;fill-opacity:1;fill-rule:nonzero;stroke:none"
         id="path142" /><path
         d="m 2354.92,1918.4 c -1.93,-5.41 -4.54,-10.06 -7.83,-13.96 -3.29,-3.89 -7.08,-6.91 -11.41,-9.1 -4.32,-2.18 -9,-3.4 -14.03,-3.66 -5.05,-0.29 -10.28,0.55 -15.69,2.49 -5.41,1.94 -9.98,4.61 -13.7,8.01 -3.73,3.41 -6.57,7.33 -8.52,11.76 -1.97,4.43 -2.97,9.18 -3.05,14.27 -0.07,5.09 0.87,10.34 2.81,15.75 1.9,5.31 4.49,9.93 7.8,13.88 3.3,3.94 7.11,7.01 11.44,9.18 4.32,2.18 8.99,3.41 14.04,3.68 5.04,0.26 10.27,-0.56 15.68,-2.5 5.41,-1.93 9.98,-4.62 13.7,-8.02 3.73,-3.41 6.57,-7.33 8.52,-11.75 1.96,-4.43 2.97,-9.21 3.02,-14.36 0.05,-5.14 -0.88,-10.37 -2.78,-15.67 z m 24.55,40.94 c -3.64,7.22 -8.75,13.6 -15.31,19.12 -6.58,5.53 -14.35,9.91 -23.33,13.11 -8.99,3.22 -17.77,4.78 -26.36,4.68 -8.58,-0.11 -16.57,-1.8 -23.97,-5.07 -7.39,-3.27 -13.97,-8.09 -19.73,-14.45 -5.76,-6.37 -10.28,-14.16 -13.58,-23.35 -3.29,-9.2 -4.73,-18.08 -4.32,-26.65 0.41,-8.58 2.44,-16.48 6.08,-23.7 3.64,-7.23 8.75,-13.61 15.32,-19.13 6.57,-5.52 14.34,-9.89 23.32,-13.11 8.98,-3.22 17.77,-4.77 26.35,-4.66 8.59,0.09 16.58,1.78 23.98,5.05 7.39,3.28 13.98,8.1 19.73,14.46 5.76,6.36 10.29,14.14 13.58,23.34 3.29,9.2 4.73,18.1 4.32,26.66 -0.41,8.58 -2.44,16.47 -6.08,23.7"
         style="fill:#ffffff;fill-opacity:1;fill-rule:nonzero;stroke:none"
         id="path144" /><path
         d="m 2583.53,1863.35 c -1.27,-6.77 -3.44,-12.31 -6.52,-16.59 -3.08,-4.27 -6.81,-7.49 -11.19,-9.65 -4.38,-2.17 -9.31,-3.38 -14.8,-3.65 -5.49,-0.25 -11.29,0.19 -17.39,1.32 l -13.73,2.57 13.3,71.19 15.6,-2.91 c 5.53,-1.03 10.68,-2.73 15.45,-5.09 4.76,-2.34 8.75,-5.28 11.95,-8.81 3.2,-3.52 5.5,-7.65 6.89,-12.42 1.39,-4.76 1.54,-10.08 0.44,-15.96 z m 14.91,44.14 c -5.54,6 -12.44,10.9 -20.68,14.65 -8.24,3.76 -17.16,6.55 -26.77,8.34 l -39.66,7.41 -22.43,-120 43.23,-8.08 c 8.92,-1.67 17.69,-1.96 26.31,-0.88 8.63,1.07 16.52,3.55 23.67,7.41 7.15,3.87 13.26,9.16 18.32,15.87 5.05,6.72 8.49,14.94 10.3,24.65 2.05,10.97 1.9,20.65 -0.45,29.04 -2.35,8.38 -6.29,15.58 -11.84,21.59"
         style="fill:#ffffff;fill-opacity:1;fill-rule:nonzero;stroke:none"
         id="path146" /><path
         d="m 2631.77,1793.36 85.6,-8.71 2.51,24.7 -58.84,5.99 2.52,24.7 52.66,-5.36 2.52,24.7 -52.67,5.36 2.3,22.65 55.76,-5.67 2.51,24.7 -82.52,8.39 -12.35,-121.45"
         style="fill:#ffffff;fill-opacity:1;fill-rule:nonzero;stroke:none"
         id="path148" /><path
         d="m 2943.52,1906.68 -24,-81.06 -0.34,-0.02 -32.31,78.06 -40.63,-2.17 6.49,-121.9 26.86,1.43 -4.97,93.5 0.34,0.01 35.8,-91.86 20.49,1.1 27.05,95.2 0.34,0.02 4.98,-93.5 26.86,1.44 -6.5,121.89 -40.46,-2.14"
         style="fill:#ffffff;fill-opacity:1;fill-rule:nonzero;stroke:none"
         id="path150" /><path
         d="m 3116.21,1851.23 c -1.02,-4.99 -2.88,-9.48 -5.62,-13.47 -2.74,-3.99 -6.26,-7.31 -10.54,-9.98 -4.29,-2.67 -9.27,-4.45 -14.95,-5.35 -5.68,-0.91 -10.96,-0.77 -15.88,0.43 -4.91,1.2 -9.27,3.26 -13.12,6.19 -3.85,2.94 -7.02,6.62 -9.54,11.05 -2.51,4.43 -4.22,9.49 -5.13,15.16 -0.88,5.56 -0.83,10.87 0.17,15.92 0.99,5.05 2.86,9.56 5.6,13.55 2.74,3.99 6.25,7.32 10.54,9.98 4.29,2.67 9.27,4.45 14.94,5.35 5.69,0.91 10.97,0.77 15.88,-0.42 4.91,-1.2 9.28,-3.27 13.14,-6.2 3.83,-2.95 7.02,-6.66 9.55,-11.14 2.51,-4.48 4.22,-9.51 5.1,-15.07 0.91,-5.68 0.86,-11.01 -0.14,-16 z m 18.68,45.86 c -4.48,7.31 -10.06,13.25 -16.73,17.84 -6.67,4.58 -14.22,7.7 -22.64,9.39 -8.41,1.68 -17.33,1.77 -26.75,0.27 -9.42,-1.51 -17.88,-4.38 -25.35,-8.6 -7.47,-4.22 -13.66,-9.54 -18.57,-15.97 -4.91,-6.43 -8.35,-13.82 -10.33,-22.17 -1.98,-8.35 -2.21,-17.36 -0.67,-26.99 1.54,-9.65 4.55,-18.14 9.05,-25.45 4.48,-7.33 10.06,-13.26 16.74,-17.85 6.66,-4.58 14.2,-7.71 22.62,-9.39 8.42,-1.68 17.34,-1.78 26.76,-0.26 9.41,1.5 17.87,4.36 25.34,8.58 7.47,4.22 13.66,9.55 18.58,15.98 4.91,6.43 8.35,13.82 10.33,22.18 1.99,8.34 2.21,17.34 0.66,27 -1.53,9.64 -4.55,18.12 -9.04,25.44"
         style="fill:#ffffff;fill-opacity:1;fill-rule:nonzero;stroke:none"
         id="path152" /><path
         d="m 3243.95,1889.47 c -3.7,3.47 -7.89,5.92 -12.57,7.36 -4.68,1.45 -9.54,2.26 -14.56,2.42 -5.01,0.18 -9.72,0.43 -14.13,0.76 -4.4,0.32 -8.18,1.11 -11.33,2.34 -3.15,1.22 -5.16,3.63 -6.05,7.2 -0.56,2.23 -0.47,4.26 0.26,6.11 0.73,1.84 1.87,3.45 3.41,4.84 1.55,1.39 3.27,2.56 5.18,3.5 1.9,0.95 3.8,1.66 5.69,2.13 3.23,0.81 6.82,1.02 10.77,0.63 3.95,-0.39 7.31,-1.65 10.1,-3.79 l 13.04,24.03 c -6.14,3.2 -12.56,4.99 -19.28,5.34 -6.72,0.34 -13.42,-0.32 -20.12,-1.99 -5.8,-1.44 -11.24,-3.64 -16.3,-6.62 -5.07,-2.97 -9.28,-6.6 -12.66,-10.87 -3.38,-4.28 -5.74,-9.13 -7.04,-14.55 -1.33,-5.42 -1.2,-11.31 0.39,-17.67 1.63,-6.59 4.31,-11.54 8.04,-14.87 3.73,-3.35 7.96,-5.73 12.71,-7.15 4.72,-1.44 9.68,-2.29 14.84,-2.54 5.16,-0.25 9.97,-0.6 14.46,-1.02 4.49,-0.43 8.35,-1.33 11.61,-2.72 3.24,-1.39 5.31,-3.86 6.2,-7.43 0.52,-2.12 0.45,-4.09 -0.22,-5.92 -0.67,-1.83 -1.75,-3.46 -3.23,-4.88 -1.48,-1.45 -3.24,-2.69 -5.29,-3.72 -2.06,-1.05 -4.14,-1.83 -6.26,-2.36 -4.36,-1.08 -8.81,-1.15 -13.36,-0.21 -4.56,0.95 -8.61,2.86 -12.19,5.78 l -13.51,-25.04 c 7.01,-3.83 14.08,-6.09 21.25,-6.81 7.16,-0.7 14.59,-0.1 22.29,1.81 6.13,1.53 11.77,3.76 16.9,6.69 5.14,2.94 9.4,6.54 12.78,10.81 3.38,4.28 5.69,9.17 6.92,14.7 1.23,5.51 1.04,11.56 -0.59,18.15 -1.73,6.92 -4.44,12.1 -8.15,15.56"
         style="fill:#ffffff;fill-opacity:1;fill-rule:nonzero;stroke:none"
         id="path154" /><path
         d="m 3346.51,1921.6 c -3.94,3.19 -8.29,5.35 -13.07,6.46 -4.76,1.1 -9.66,1.58 -14.67,1.39 -5.02,-0.18 -9.75,-0.26 -14.16,-0.23 -4.43,0.01 -8.24,0.51 -11.47,1.52 -3.23,1 -5.41,3.26 -6.54,6.76 -0.71,2.18 -0.77,4.23 -0.18,6.11 0.61,1.88 1.62,3.57 3.07,5.08 1.44,1.49 3.09,2.77 4.91,3.86 1.83,1.07 3.66,1.91 5.53,2.51 3.17,1.04 6.74,1.49 10.7,1.39 3.97,-0.11 7.41,-1.13 10.33,-3.07 l 11.32,24.88 c -6.34,2.77 -12.87,4.1 -19.6,3.97 -6.73,-0.13 -13.37,-1.27 -19.93,-3.39 -5.68,-1.84 -10.95,-4.43 -15.79,-7.75 -4.84,-3.34 -8.8,-7.25 -11.87,-11.75 -3.06,-4.5 -5.06,-9.5 -6,-15 -0.93,-5.5 -0.39,-11.36 1.63,-17.6 2.1,-6.45 5.12,-11.21 9.07,-14.27 3.97,-3.07 8.35,-5.15 13.18,-6.24 4.83,-1.1 9.82,-1.58 14.99,-1.49 5.16,0.11 10,0.12 14.51,0 4.49,-0.1 8.42,-0.74 11.75,-1.89 3.33,-1.15 5.57,-3.47 6.71,-6.97 0.68,-2.07 0.74,-4.06 0.2,-5.92 -0.54,-1.87 -1.49,-3.57 -2.87,-5.11 -1.39,-1.53 -3.05,-2.89 -5.03,-4.07 -1.96,-1.18 -4,-2.12 -6.07,-2.79 -4.26,-1.38 -8.7,-1.77 -13.32,-1.16 -4.61,0.63 -8.79,2.26 -12.55,4.9 l -11.71,-25.91 c 7.25,-3.33 14.46,-5.09 21.66,-5.3 7.19,-0.2 14.57,0.92 22.11,3.37 6.01,1.96 11.48,4.57 16.39,7.86 4.92,3.3 8.91,7.18 11.98,11.69 3.07,4.5 5.03,9.54 5.87,15.14 0.84,5.6 0.22,11.61 -1.87,18.07 -2.21,6.77 -5.27,11.75 -9.21,14.95"
         style="fill:#ffffff;fill-opacity:1;fill-rule:nonzero;stroke:none"
         id="path156" /><path
         d="m 3466.02,1946.37 c -1.71,-4.53 -4.32,-8.59 -7.86,-12.2 -3.52,-3.62 -7.94,-6.54 -13.23,-8.76 -5.3,-2.24 -10.47,-3.36 -15.52,-3.37 -5.05,-0.01 -9.79,0.94 -14.23,2.89 -4.44,1.93 -8.4,4.75 -11.89,8.46 -3.51,3.7 -6.36,8.2 -8.6,13.49 -2.18,5.2 -3.4,10.36 -3.64,15.51 -0.23,5.14 0.51,9.97 2.23,14.49 1.7,4.53 4.32,8.6 7.85,12.21 3.52,3.61 7.95,6.52 13.24,8.76 5.29,2.23 10.47,3.36 15.52,3.37 5.05,0.01 9.79,-0.96 14.22,-2.89 4.44,-1.94 8.42,-4.79 11.93,-8.54 3.52,-3.76 6.38,-8.24 8.56,-13.42 2.23,-5.3 3.45,-10.49 3.67,-15.58 0.21,-5.09 -0.54,-9.89 -2.25,-14.42 z m 9.47,63.41 c -6.1,6.04 -12.94,10.48 -20.49,13.34 -7.58,2.85 -15.66,4.1 -24.22,3.73 -8.59,-0.37 -17.27,-2.42 -26.06,-6.12 -8.8,-3.71 -16.32,-8.51 -22.57,-14.39 -6.26,-5.87 -10.99,-12.53 -14.22,-19.94 -3.24,-7.41 -4.84,-15.41 -4.77,-23.98 0.07,-8.6 2,-17.38 5.79,-26.38 3.8,-9.01 8.75,-16.53 14.85,-22.57 6.1,-6.02 12.93,-10.49 20.5,-13.35 7.57,-2.85 15.65,-4.09 24.21,-3.72 8.59,0.38 17.27,2.41 26.07,6.13 8.78,3.71 16.31,8.5 22.56,14.37 6.25,5.89 10.99,12.53 14.23,19.95 3.24,7.41 4.82,15.41 4.76,24 -0.07,8.57 -1.99,17.37 -5.79,26.37 -3.8,9.01 -8.74,16.53 -14.85,22.56"
         style="fill:#ffffff;fill-opacity:1;fill-rule:nonzero;stroke:none"
         id="path158" /><path
         d="m 3559.08,2037.48 c -1.53,-1.79 -3.44,-3.39 -5.74,-4.81 -2.31,-1.41 -4.54,-2.7 -6.66,-3.83 l -14.01,-7.44 -13.02,24.52 15.53,8.26 c 2.13,1.12 4.41,2.13 6.8,3.01 2.39,0.88 4.68,1.34 6.86,1.4 2.18,0.06 4.27,-0.44 6.25,-1.46 1.98,-1.03 3.7,-2.91 5.15,-5.66 1.57,-2.95 2.14,-5.57 1.74,-7.87 -0.41,-2.3 -1.37,-4.35 -2.9,-6.12 z m 30.29,4.36 c 1.13,7.43 -0.32,14.96 -4.36,22.58 -3.35,6.29 -7.24,10.96 -11.65,14.01 -4.43,3.06 -9.14,4.85 -14.18,5.37 -5.02,0.51 -10.29,0 -15.78,-1.55 -5.49,-1.55 -10.96,-3.78 -16.45,-6.69 l -41.73,-22.15 57.26,-107.83 23.76,12.62 -22.9,43.11 11.73,6.22 45.42,-31.14 28.49,15.13 -51.59,30.98 c 6.85,5.46 10.85,11.91 11.98,19.34"
         style="fill:#ffffff;fill-opacity:1;fill-rule:nonzero;stroke:none"
         id="path160" /><path
         d="m 3647.12,2187.58 -29.49,-19.18 -1.05,-30.31 19.08,12.41 11.46,37.08"
         style="fill:#ffffff;fill-opacity:1;fill-rule:nonzero;stroke:none"
         id="path162" /><path
         d="m 3707.71,2080.23 c -0.89,-4.75 -2.74,-9.22 -5.57,-13.4 -2.85,-4.18 -6.67,-7.83 -11.49,-10.96 -4.82,-3.14 -9.71,-5.16 -14.68,-6.06 -4.96,-0.9 -9.8,-0.8 -14.51,0.33 -4.71,1.13 -9.1,3.2 -13.2,6.22 -4.09,3.03 -7.71,6.95 -10.85,11.77 -3.07,4.72 -5.17,9.59 -6.31,14.61 -1.15,5.02 -1.28,9.9 -0.39,14.67 0.89,4.75 2.74,9.22 5.58,13.39 2.84,4.18 6.66,7.83 11.48,10.97 4.82,3.14 9.71,5.15 14.68,6.05 4.97,0.9 9.8,0.8 14.51,-0.32 4.71,-1.13 9.12,-3.23 13.24,-6.3 4.13,-3.08 7.74,-6.97 10.81,-11.69 3.14,-4.82 5.26,-9.72 6.36,-14.68 1.1,-4.97 1.23,-9.84 0.34,-14.6 z m 16.71,44.51 c -5.32,8.19 -11.53,14.72 -18.6,19.58 -7.07,4.86 -14.59,8.02 -22.54,9.5 -7.95,1.48 -16.13,1.27 -24.49,-0.6 -8.38,-1.89 -16.57,-5.44 -24.57,-10.64 -7.99,-5.2 -14.55,-11.26 -19.66,-18.14 -5.11,-6.89 -8.61,-14.28 -10.48,-22.15 -1.88,-7.88 -2.01,-16.01 -0.44,-24.45 1.58,-8.44 5.04,-16.75 10.36,-24.94 5.32,-8.2 11.53,-14.73 18.6,-19.58 7.07,-4.86 14.59,-8.03 22.54,-9.51 7.95,-1.47 16.13,-1.27 24.5,0.61 8.36,1.89 16.55,5.43 24.56,10.64 7.99,5.2 14.55,11.25 19.66,18.14 5.11,6.89 8.61,14.28 10.48,22.15 1.88,7.87 2.02,16.02 0.44,24.45 -1.58,8.44 -5.03,16.76 -10.36,24.94"
         style="fill:#ffffff;fill-opacity:1;fill-rule:nonzero;stroke:none"
         id="path164" /><path
         d="m 3808.66,2271.43 -7.54,-51.57 22.18,-2.95 4.05,32.37 61.71,-69.72 18.59,16.45 -80.92,91.43 -18.07,-16.01"
         style="fill:#ffffff;fill-opacity:1;fill-rule:nonzero;stroke:none"
         id="path166" /><path
         d="m 3957.42,2274.44 c -3.62,-3.69 -7.59,-5.61 -11.9,-5.73 -4.29,-0.13 -7.97,1.31 -11.01,4.27 -3.12,3.06 -4.66,6.74 -4.63,11.05 0.04,4.32 1.86,8.32 5.48,12 3.63,3.7 7.59,5.61 11.89,5.74 4.31,0.12 8.03,-1.33 11.14,-4.39 3.04,-2.99 4.55,-6.62 4.51,-10.93 -0.03,-4.3 -1.87,-8.31 -5.48,-12.01 z m -36.84,36.07 c -3.14,-3.19 -6.62,-4.86 -10.44,-4.99 -3.82,-0.11 -7.08,1.16 -9.78,3.81 -2.63,2.57 -3.92,5.77 -3.89,9.58 0.05,3.83 1.63,7.35 4.78,10.55 3.12,3.2 6.6,4.86 10.43,4.99 3.81,0.12 7.04,-1.11 9.66,-3.68 2.72,-2.66 4.05,-5.9 4.01,-9.72 -0.04,-3.83 -1.63,-7.33 -4.77,-10.54 z m 58.5,2.82 c -5.42,5.3 -11.32,8.35 -17.72,9.14 -6.38,0.78 -12.85,-0.77 -19.39,-4.65 l -0.25,0.23 c 3.19,6.05 4.37,12.01 3.54,17.9 -0.84,5.89 -3.64,11.16 -8.41,15.82 -4.02,3.95 -8.3,6.61 -12.82,7.98 -4.53,1.38 -9.07,1.73 -13.66,1.08 -4.59,-0.66 -9.11,-2.27 -13.56,-4.84 -4.44,-2.56 -8.63,-5.86 -12.58,-9.89 -3.94,-4.01 -7.14,-8.27 -9.61,-12.78 -2.48,-4.5 -4.02,-9.07 -4.61,-13.69 -0.61,-4.64 -0.15,-9.19 1.36,-13.66 1.51,-4.45 4.27,-8.65 8.3,-12.58 4.76,-4.66 10.09,-7.36 15.99,-8.07 5.9,-0.71 11.85,0.58 17.83,3.91 l 0.25,-0.25 c -3.75,-6.62 -5.17,-13.11 -4.25,-19.48 0.92,-6.38 4.09,-12.22 9.51,-17.53 4.19,-4.1 8.71,-6.88 13.55,-8.33 4.86,-1.46 9.72,-1.79 14.59,-1.01 4.87,0.78 9.65,2.5 14.33,5.15 4.69,2.65 9,5.99 12.95,10.02 3.94,4.01 7.18,8.4 9.74,13.13 2.55,4.75 4.17,9.56 4.85,14.46 0.67,4.88 0.23,9.72 -1.32,14.55 -1.55,4.81 -4.42,9.29 -8.61,13.39"
         style="fill:#ffffff;fill-opacity:1;fill-rule:nonzero;stroke:none"
         id="path168" /><path
         d="m 4045.61,2402.85 c -4.72,4.02 -9.67,6.86 -14.82,8.51 -5.16,1.66 -10.28,2.19 -15.36,1.62 -5.09,-0.58 -10.01,-2.25 -14.77,-5 -4.75,-2.76 -9.13,-6.51 -13.14,-11.24 -2.97,-3.5 -4.97,-6.57 -5.98,-9.18 l -13.99,12.56 31.34,36.95 -17.36,14.72 -47.73,-56.28 50.51,-44.66 c 1.56,3.96 3.42,7.85 5.59,11.65 2.18,3.81 4.64,7.34 7.39,10.57 2.16,2.55 4.53,4.91 7.12,7.07 2.61,2.17 5.37,3.79 8.29,4.85 2.93,1.05 5.93,1.37 8.98,0.98 3.05,-0.41 6.11,-1.91 9.18,-4.51 4.03,-3.42 6.29,-7.5 6.81,-12.23 0.51,-4.72 -1.01,-9.19 -4.59,-13.4 -2.89,-3.42 -6.35,-5.4 -10.33,-5.93 -4,-0.53 -7.88,0.35 -11.66,2.66 l -12.78,-24.66 c 9.68,-4.76 18.81,-6.09 27.36,-3.99 8.55,2.07 16.25,7.15 23.1,15.22 4.31,5.09 7.55,10.43 9.75,16.03 2.2,5.61 3.2,11.19 3.03,16.77 -0.17,5.58 -1.55,11 -4.15,16.29 -2.6,5.29 -6.52,10.18 -11.79,14.63"
         style="fill:#ffffff;fill-opacity:1;fill-rule:nonzero;stroke:none"
         id="path170" /><path
         d="m 4095.57,2437.64 -3.83,48.75 c -0.32,3.08 -0.77,6.05 -1.38,8.92 -0.61,2.87 -1.54,5.64 -2.77,8.33 -1.24,2.69 -2.9,5.29 -4.98,7.81 -2.07,2.52 -4.68,4.93 -7.83,7.23 -4.92,3.61 -9.82,5.95 -14.73,7.04 -4.9,1.1 -9.62,1.1 -14.18,0.03 -4.57,-1.08 -8.9,-3.1 -13,-6.08 -4.11,-2.98 -7.8,-6.69 -11.06,-11.14 -3.52,-4.83 -6.18,-9.76 -7.95,-14.81 -1.76,-5.04 -2.52,-10.01 -2.25,-14.9 0.25,-4.9 1.59,-9.65 3.98,-14.25 2.4,-4.61 6.06,-8.92 10.95,-12.93 l 16.82,19.74 c -3.32,2.86 -5.39,6.26 -6.21,10.21 -0.83,3.94 0.2,7.87 3.05,11.77 2.37,3.24 5.4,5.37 9.06,6.39 3.67,1.02 7.18,0.31 10.52,-2.14 2.96,-2.17 4.86,-5.04 5.66,-8.62 0.79,-3.58 1.35,-6.99 1.7,-10.22 l 6.34,-63.42 22.12,-16.2 50.32,68.73 -18.36,13.44 -31.99,-43.68"
         style="fill:#ffffff;fill-opacity:1;fill-rule:nonzero;stroke:none"
         id="path172" /><path
         d="m 4156.44,2599.58 c -12.58,0.15 -22.93,-9.96 -23.07,-22.54 -0.15,-12.58 9.97,-22.92 22.54,-23.07 12.58,-0.15 22.93,9.97 23.08,22.54 0.15,12.58 -9.97,22.93 -22.55,23.07"
         style="fill:#ffffff;fill-opacity:1;fill-rule:nonzero;stroke:none"
         id="path174" /><path
         d="m 1551.18,2566.33 c 0.14,12.58 -9.97,22.93 -22.55,23.08 -12.57,0.14 -22.92,-9.97 -23.06,-22.55 -0.15,-12.58 9.96,-22.92 22.54,-23.07 12.57,-0.14 22.92,9.97 23.07,22.54"
         style="fill:#ffffff;fill-opacity:1;fill-rule:nonzero;stroke:none"
         id="path176" /></g></g></svg>
